<svg width="24" height="24" viewBox="0 0 24 24" fill="none" xmlns="http://www.w3.org/2000/svg">
<path fill-rule="evenodd" clip-rule="evenodd" d="M7.90503 1.09003C8.12103 1.17503 8.31603 1.31503 8.49303 1.50003C8.78803 1.80603 9.03703 2.24403 9.22703 2.76303C9.41803 3.28503 9.54203 3.86303 9.58903 4.44303C10.2186 4.08684 10.9174 3.86995 11.638 3.80703L11.689 3.80303C12.559 3.73303 13.419 3.89003 14.169 4.27703C14.27 4.33003 14.369 4.38703 14.466 4.44703C14.516 3.87803 14.638 3.31303 14.826 2.80303C15.016 2.28303 15.265 1.84603 15.559 1.53903C15.7233 1.3613 15.9243 1.2214 16.148 1.12903C16.405 1.02903 16.678 1.01103 16.944 1.08703C17.345 1.20103 17.689 1.45503 17.96 1.82403C18.208 2.16103 18.394 2.59303 18.521 3.11103C18.751 4.04503 18.791 5.27403 18.636 6.75603L18.689 6.79603L18.715 6.81503C19.472 7.39103 19.999 8.21203 20.278 9.16503C20.713 10.652 20.494 12.32 19.744 13.253L19.726 13.274L19.728 13.277C20.145 14.039 20.398 14.844 20.452 15.677L20.454 15.707C20.518 16.772 20.254 17.844 19.64 18.897L19.633 18.907L19.643 18.931C20.115 20.088 20.263 21.253 20.081 22.417L20.075 22.456C20.0468 22.6261 19.9524 22.778 19.8123 22.8784C19.6723 22.9789 19.4981 23.0198 19.328 22.992C19.2438 22.9789 19.163 22.9492 19.0902 22.9048C19.0175 22.8604 18.9542 22.802 18.9041 22.7331C18.8539 22.6642 18.8178 22.586 18.7979 22.5031C18.778 22.4202 18.7746 22.3342 18.788 22.25C18.955 21.217 18.798 20.181 18.308 19.127C18.2623 19.0291 18.242 18.9212 18.249 18.8134C18.256 18.7056 18.2901 18.6012 18.348 18.51L18.352 18.504C18.956 17.58 19.206 16.674 19.152 15.784C19.106 15.005 18.827 14.24 18.352 13.511C18.2596 13.3693 18.2267 13.1969 18.2604 13.0311C18.2941 12.8653 18.3917 12.7195 18.532 12.625L18.541 12.619C18.784 12.46 19.008 12.054 19.121 11.499C19.2457 10.8428 19.2132 10.1663 19.026 9.52503C18.821 8.82503 18.446 8.24103 17.921 7.84203C17.326 7.38803 16.538 7.16903 15.541 7.23203C15.4107 7.24051 15.2808 7.20969 15.1681 7.14355C15.0554 7.07741 14.9652 6.979 14.909 6.86103C14.595 6.19603 14.137 5.72003 13.566 5.42503C13.0178 5.15143 12.4041 5.03644 11.794 5.09303C10.549 5.19203 9.45103 5.89403 9.12403 6.77903C9.07777 6.90359 8.99456 7.01104 8.88555 7.08699C8.77653 7.16295 8.6469 7.20378 8.51403 7.20403C7.44703 7.20603 6.62103 7.45603 6.01703 7.90703C5.49503 8.29703 5.13903 8.84203 4.95103 9.49503C4.78091 10.1097 4.75762 10.7557 4.88303 11.381C4.99503 11.939 5.21403 12.401 5.46503 12.65L5.47303 12.657C5.68503 12.864 5.73003 13.187 5.58203 13.442C5.22203 14.064 4.95303 14.991 4.90903 15.882C4.85903 16.9 5.09503 17.784 5.62803 18.418L5.64403 18.437C5.72447 18.5308 5.7762 18.6457 5.79305 18.7681C5.8099 18.8904 5.79115 19.015 5.73903 19.127C5.16303 20.363 4.98603 21.379 5.17703 22.179C5.21137 22.3454 5.17942 22.5186 5.088 22.6617C4.99659 22.8049 4.85291 22.9067 4.68755 22.9455C4.52219 22.9844 4.3482 22.9571 4.20261 22.8696C4.05703 22.7821 3.95134 22.6413 3.90803 22.477C3.66503 21.459 3.83003 20.293 4.38103 18.979L4.39503 18.944L4.38703 18.932C4.11623 18.532 3.91411 18.0896 3.78903 17.623L3.78403 17.604C3.63225 17.0219 3.57252 16.4196 3.60703 15.819C3.65103 14.909 3.88503 13.977 4.22903 13.229L4.24103 13.203L4.23903 13.201C3.94603 12.783 3.72903 12.248 3.60903 11.656L3.60403 11.632C3.4387 10.8063 3.47056 9.95315 3.69703 9.14203C3.95903 8.22703 4.47403 7.44103 5.23303 6.87303C5.29303 6.82803 5.35603 6.78303 5.41903 6.74103C5.26003 5.24803 5.30003 4.01103 5.53103 3.07103C5.65803 2.55303 5.84503 2.12103 6.09303 1.78403C6.36303 1.41603 6.70703 1.16203 7.10803 1.04703C7.37403 0.97103 7.64803 0.98803 7.90503 1.08903V1.09003ZM12.021 10.18C12.957 10.18 13.821 10.493 14.467 11.035C15.097 11.562 15.472 12.27 15.472 12.975C15.472 13.863 15.066 14.555 14.339 14.997C13.719 15.372 12.888 15.554 11.936 15.554C10.927 15.554 10.065 15.295 9.44303 14.82C8.82603 14.35 8.48003 13.69 8.48003 12.975C8.48003 12.268 8.87803 11.558 9.53603 11.029C10.204 10.492 11.086 10.18 12.021 10.18ZM12.021 11.076C11.3273 11.07 10.6519 11.2991 10.105 11.726C9.64403 12.096 9.38303 12.561 9.38303 12.976C9.38303 13.404 9.59303 13.805 9.99303 14.11C10.448 14.457 11.117 14.658 11.936 14.658C12.735 14.658 13.409 14.511 13.868 14.232C14.331 13.952 14.568 13.546 14.568 12.975C14.568 12.552 14.322 12.085 13.885 11.719C13.401 11.314 12.745 11.076 12.021 11.076ZM12.683 12.286L12.687 12.29C12.807 12.441 12.782 12.66 12.631 12.78L12.339 13.01V13.456C12.3385 13.5553 12.2986 13.6503 12.2281 13.7203C12.1577 13.7902 12.0623 13.8293 11.963 13.829C11.8638 13.8293 11.7684 13.7902 11.6979 13.7203C11.6274 13.6503 11.5876 13.5553 11.587 13.456V12.996L11.316 12.778C11.2803 12.7494 11.2506 12.7139 11.2286 12.6738C11.2066 12.6336 11.1928 12.5894 11.188 12.5439C11.1831 12.4983 11.1874 12.4522 11.2004 12.4083C11.2135 12.3644 11.2351 12.3235 11.264 12.288C11.3231 12.2162 11.4081 12.1705 11.5005 12.161C11.593 12.1514 11.6856 12.1788 11.758 12.237L11.973 12.409L12.193 12.235C12.2652 12.178 12.3569 12.1514 12.4484 12.1609C12.5399 12.1704 12.6241 12.2153 12.683 12.286ZM7.64303 10.367C8.12103 10.367 8.51003 10.757 8.51003 11.238C8.5103 11.4686 8.41903 11.6898 8.25628 11.8532C8.09352 12.0165 7.8726 12.1085 7.64203 12.109C7.41182 12.1082 7.1913 12.0162 7.02879 11.8532C6.86628 11.6901 6.77503 11.4693 6.77503 11.239C6.7745 11.0085 6.86552 10.7871 7.02808 10.6236C7.19065 10.4601 7.41247 10.3678 7.64303 10.367ZM16.349 10.367C16.829 10.367 17.217 10.757 17.217 11.238C17.2173 11.4686 17.126 11.6898 16.9633 11.8532C16.8005 12.0165 16.5796 12.1085 16.349 12.109C16.1188 12.1082 15.8983 12.0162 15.7358 11.8532C15.5733 11.6901 15.482 11.4693 15.482 11.239C15.4815 11.0085 15.5725 10.7871 15.7351 10.6236C15.8976 10.4601 16.1185 10.3678 16.349 10.367Z" fill="#424242"/>
</svg>
